HIERARCHY
ROOT pelvis
{
  OFFSET 0 100 0
  CHANNELS 6 Xposition Yposition Zposition Zrotation Xrotation Yrotation
  JOINT pelvis_right_femur
  {
    OFFSET -10.78128 -3.44521 -0.5502486
    CHANNELS 3 Zrotation Xrotation Yrotation
    JOINT right_femur_tibia
    {
      OFFSET -0.8047443 -44.0398 -0.1307829
      CHANNELS 3 Zrotation Xrotation Yrotation
      JOINT right_tibia_foot
      {
        OFFSET 3.006224 -47.83518 -5
        CHANNELS 3 Zrotation Xrotation Yrotation
        End Site
        {
          OFFSET 0 -5 15
        }
      }
    }
  }
  JOINT pelvis_left_femur
  {
    OFFSET 10.78128 -3.44521 -0.5502486
    CHANNELS 3 Zrotation Xrotation Yrotation
    JOINT left_femur_tibia
    {
      OFFSET 0.8047443 -44.0398 -0.1307829
      CHANNELS 3 Zrotation Xrotation Yrotation
      JOINT left_tibia_foot
      {
        OFFSET -4.370144 -48.10324 -4.275266
        CHANNELS 3 Zrotation Xrotation Yrotation
        End Site
        {
          OFFSET 0 -5 15
        }
      }
    }
  }
  JOINT pelvis_spine1
  {
    OFFSET 0 6.468898 -3.129235
    CHANNELS 3 Zrotation Xrotation Yrotation
    JOINT spine1
    {
      OFFSET 0 23.15396 4.99043
      CHANNELS 3 Zrotation Xrotation Yrotation
      JOINT spine2
      {
        OFFSET 0 20.79997 -5.064912
        CHANNELS 3 Zrotation Xrotation Yrotation
        JOINT neck
        {
          OFFSET 0 14.38658 9.616178
          CHANNELS 3 Zrotation Xrotation Yrotation
          End Site
          {
            OFFSET 0 20 0
          }
        }
      }
      JOINT right_manubrium
      {
        OFFSET -5.722621 16.35077 3.967754
        CHANNELS 3 Zrotation Xrotation Yrotation
        JOINT right_clavicle
        {
          OFFSET -13.16364 1.694482 -4.693211
          CHANNELS 3 Zrotation Xrotation Yrotation
          JOINT right_humerus
          {
            OFFSET -28.5034 -0.3100689 -2.792744
            CHANNELS 3 Zrotation Xrotation Yrotation
            JOINT right_radius
            {
              OFFSET -25.15693 0.02248979 -1.271978
              CHANNELS 3 Zrotation Xrotation Yrotation
              End Site
              {
                OFFSET -15 0 0
              }
            }
          }
        }
      }
      JOINT left_manubrium
      {
        OFFSET 5.722621 16.35077 3.967754
        CHANNELS 3 Zrotation Xrotation Yrotation
        JOINT left_clavicle
        {
          OFFSET 13.16364 1.694482 -4.693211
          CHANNELS 3 Zrotation Xrotation Yrotation
          JOINT left_humerus
          {
            OFFSET 29.39168 -1.063119 -2.237045
            CHANNELS 3 Zrotation Xrotation Yrotation
            JOINT left_radius
            {
              OFFSET 24.59957 -0.9528479 0.9047498
              CHANNELS 3 Zrotation Xrotation Yrotation
              End Site
              {
                OFFSET 15 -0 -0
              }
            }
          }
        }
      }
    }
  }
}
MOTION
Frames: 15
Frame Time: 0.0416666666667
1538.966 102.566 2389.787 5.781321 -2.673233 61.75526 5.010302 -0.6104577 4.188084 -0 14.71608 -0 -4.183057 -10.16989 -4.610904 -2.148512 -8.216861 -7.130085 -0 59.06817 -0 -8.531581 -5.95015 14.08546 -0.960726 1.328366 6.061402 1.19059 9.766075 -5.1695 2.146668 23.30978 5.081753 2.788778 -18.36901 6.524614 3.954691 -15.52307 11.58794 85.09362 29.73782 -15.39593 -0 0 11.35805 -17.71394 13.2456 9.214923 4.225576 -19.1727 -2.618076 -88.88458 24.51264 15.58156 0 0 -17.64994 1.42132 10.62778 12.25425
1543.67 103.0607 2392.393 6.149198 -2.682599 61.04663 4.739064 3.845106 3.788741 -0 12.37844 -0 -4.098115 -11.85858 -3.547704 -1.135935 -15.07343 -5.894365 -0 54.11114 -0 -8.0057 -6.450056 15.69635 -1.169469 1.848254 6.86176 0.7097896 9.891408 -4.467935 2.038543 23.40673 5.151554 2.977303 -17.98053 6.272434 3.697162 -16.98037 11.80501 83.07686 29.71349 -12.42023 -0 0 14.01536 -19.26024 13.02084 10.24841 4.534693 -19.01727 -2.522123 -89.94108 24.12313 17.5115 0 0 -16.74627 1.18615 10.56715 12.45413
1548.351 102.9314 2394.856 6.031554 -2.788455 60.26665 4.668424 7.719672 3.497507 -0 10.22977 -0 -3.681561 -13.70588 -2.481164 0.2318847 -20.70931 -4.591553 -0 45.57873 -0 -7.465688 -6.99605 17.28021 -1.072374 2.171303 7.312808 0.2715674 9.839633 -3.866721 1.91012 23.26493 5.306546 3.070935 -17.69502 6.176777 3.27086 -18.51273 11.87418 81.04307 29.30747 -9.269063 -0 0 17.0531 -20.9168 12.71348 11.45414 4.832481 -18.55836 -2.489901 -90.98748 23.56536 19.45127 0 0 -15.53809 0.9306885 10.27583 12.62522
1553.222 102.2425 2397.271 5.509501 -2.835447 59.44099 4.573868 11.21477 3.295633 -0 9.011843 -0 -2.942514 -15.45356 -1.475901 1.540683 -24.79833 -3.499112 -0 35.54269 -0 -6.929048 -7.26608 18.48837 -0.840404 2.162919 7.522224 -0.06855944 9.620574 -3.418943 1.77592 22.9526 5.492864 3.035608 -17.56812 6.22622 2.759472 -19.91886 11.77767 79.28073 28.68993 -6.376612 -0 0 19.98282 -22.50957 12.40249 12.75604 4.973288 -17.79754 -2.453304 -91.90552 22.98583 21.3202 0 0 -14.1232 0.5908168 9.790173 12.89613
1558.452 101.1805 2399.729 4.854311 -2.69037 58.6367 4.201558 14.38315 3.141603 -0 9.343178 -0 -1.962383 -16.55752 -0.6392851 2.270427 -27.21806 -2.961054 -0 26.30975 -0 -6.428112 -7.276457 19.14235 -0.7343966 1.795151 7.640566 -0.311355 9.286525 -3.124146 1.679643 22.60073 5.65302 2.899071 -17.56731 6.383206 2.249693 -20.97212 11.522 78.04799 28.04075 -4.152737 -0 0 22.27715 -23.9043 12.14609 14.00581 4.927301 -16.8664 -2.34753 -92.57417 22.55558 22.92625 0 0 -12.68193 0.1386056 9.252145 13.33624
1564.137 100.0078 2402.29 4.397046 -2.344251 57.94225 3.416477 17.08512 3.054003 -0 11.73189 -0 -0.8764931 -16.44053 -0.1183814 2.068152 -27.98444 -3.202113 -0 19.68669 -0 -5.989716 -7.225463 19.29783 -0.9360083 1.153043 7.764829 -0.5018931 8.936001 -2.943522 1.670035 22.33329 5.75221 2.726009 -17.60692 6.609481 1.826466 -21.51433 11.15398 77.50053 27.46494 -2.848547 -0 0 23.59132 -25.01714 11.97827 15.02253 4.741499 -15.94176 -2.163209 -92.94079 22.37504 24.08823 0 0 -11.33217 -0.3889754 8.815812 13.91818
1570.28 99.0153 2404.973 4.369178 -1.913337 57.44261 2.265881 19.0106 3.101034 -0 16.48801 -0 0.152121 -14.74576 -0.03989363 0.9334879 -27.21504 -4.185238 -0 16.49272 -0 -5.623543 -7.320668 19.16078 -1.459136 0.3997767 7.89661 -0.6958179 8.693898 -2.835678 1.767164 22.21177 5.797342 2.589553 -17.61304 6.876543 1.573853 -21.52201 10.76027 77.65893 26.99702 -2.508952 -0 0 23.87063 -25.81403 11.91838 15.6602 4.486751 -15.18184 -1.962699 -93.0409 22.43589 24.73851 0 0 -10.10123 -0.9043747 8.57536 14.54638
1576.783 98.47043 2407.748 4.813633 -1.567026 57.20825 0.961587 19.74184 3.32814 -0 23.55851 -0 0.9787097 -11.4877 -0.4407539 -0.79984 -25.11271 -5.623931 -0 16.46496 -0 -5.317864 -7.683466 18.94667 -2.163727 -0.2737494 7.959424 -0.9259297 8.674545 -2.787151 1.944533 22.2203 5.833939 2.545835 -17.56324 7.163288 1.561411 -21.10701 10.44451 78.41731 26.64617 -3.006519 -0 0 23.31497 -26.30149 11.98138 15.85879 4.223886 -14.69946 -1.857178 -92.95948 22.64071 24.93166 0 0 -8.993582 -1.299692 8.539471 15.10129
1583.459 98.55324 2410.54 5.594541 -1.441105 57.2899 -0.1962725 18.86069 3.696498 -0 32.36502 -0 1.519661 -7.103484 -1.245173 -2.644827 -21.95399 -7.125322 -0 18.48803 -0 -5.042698 -8.339418 18.76709 -2.835332 -0.6984349 7.84682 -1.18179 8.937109 -2.823235 2.135808 22.29044 5.921 2.61101 -17.47999 7.45049 1.814929 -20.45939 10.29103 79.58711 26.42897 -4.120869 -0 0 22.25487 -26.5089 12.18101 15.65783 3.991876 -14.5566 -1.960024 -92.76071 22.86344 24.76554 0 0 -8.085739 -1.482695 8.643369 15.4775
1590.068 99.29289 2413.244 6.475503 -1.57542 57.70823 -0.941331 16.0953 4.082402 -0 41.72621 -0 1.766074 -2.413172 -2.303703 -4.172057 -18.051 -8.351115 -0 21.01314 -0 -4.761836 -9.259309 18.58337 -3.285918 -0.7733167 7.472741 -1.405653 9.445929 -2.998837 2.261696 22.34786 6.095006 2.746006 -17.39253 7.718089 2.286805 -19.76167 10.32947 80.96113 26.37009 -5.626034 -0 0 21.00101 -26.4673 12.52136 15.17516 3.812106 -14.76438 -2.334317 -92.41916 23.01662 24.26291 0 0 -7.585481 -1.409027 8.78368 15.60602
1596.389 100.5357 2415.761 7.219305 -1.893043 58.44361 -1.171094 11.46314 4.328703 -0 49.96332 -0 1.766551 1.551685 -3.46062 -5.149878 -13.68112 -9.113317 -0 22.56779 -0 -4.443933 -10.40753 18.24243 -3.439363 -0.501573 6.808961 -1.507135 10.05808 -3.374519 2.264811 22.35651 6.341535 2.863154 -17.29968 7.945195 2.848309 -19.11005 10.51411 82.37569 26.48507 -7.357536 -0 0 19.71629 -26.19369 12.97789 14.56051 3.704007 -15.28744 -2.953091 -91.79155 23.08132 23.28409 0 0 -7.805702 -1.08753 8.866482 15.44475
1602.294 101.9769 2418.047 7.665101 -2.228912 59.43717 -1.002732 5.33943 4.295959 -0 55.27463 -0 1.589614 3.874905 -4.600967 -5.581176 -9.027623 -9.394518 -0 22.24124 -0 -4.062727 -11.76317 17.5888 -3.36436 0.004450126 5.902095 -1.398165 10.56246 -3.983912 2.135379 22.33567 6.595121 2.865443 -17.16472 8.111575 3.322945 -18.48251 10.73294 83.74595 26.77063 -9.238891 -0 0 18.36605 -25.68857 13.4807 13.93759 3.703258 -16.0589 -3.693618 -90.67218 23.07123 21.55274 0 0 -9.032796 -0.5463659 8.85393 14.93914
1607.78 103.2553 2420.137 7.756253 -2.403255 60.60225 -0.7017331 -1.599877 3.890131 -0 56.33556 -0 1.281796 4.131787 -5.654768 -5.644373 -4.189766 -9.317948 -0 19.96894 -0 -3.597353 -13.30343 16.59822 -3.229144 0.56445 4.864274 -1.038331 10.76773 -4.803355 1.914093 22.33809 6.773544 2.704714 -16.95101 8.202148 3.558869 -17.77899 10.85478 85.05838 27.20862 -11.25817 -0 0 16.79083 -24.9474 13.92027 13.35883 3.864333 -17.00094 -4.37801 -88.9399 22.96412 18.83428 0 0 -11.34122 0.2035858 8.784314 14.00958
1612.942 104.0704 2422.131 7.523395 -2.3086 61.83848 -0.5248197 -8.549108 3.094899 -0 52.87063 -0 0.8517478 2.58954 -6.577128 -5.572745 0.7344793 -9.08843 -0 16.4695 -0 -3.055848 -14.97268 15.43519 -3.197148 1.003508 3.837033 -0.4649916 10.59215 -5.741442 1.672445 22.406 6.825091 2.418589 -16.67016 8.214672 3.502411 -16.91243 10.79578 86.32805 27.76469 -13.4083 -0 0 14.87136 -23.97848 14.18329 12.79839 4.234086 -18.03481 -4.845827 -86.71822 22.70054 15.18503 0 0 -14.47923 1.14726 8.750519 12.62998
1617.917 104.2647 2424.145 7.048906 -1.960735 63.04629 -0.5735676 -14.79169 2.015339 -0 45.84017 -0 0.2981294 0.07275772 -7.3339 -5.533219 5.565508 -8.918767 -0 12.8613 -0 -2.517646 -16.67187 14.37358 -3.329911 1.218937 2.942443 0.2158042 10.0944 -6.662161 1.483096 22.54009 6.754708 2.113462 -16.39835 8.165021 3.219213 -15.8868 10.55992 87.55071 28.37177 -15.62933 -0 0 12.66891 -22.81719 14.19977 12.18882 4.810484 -19.07531 -5.019348 -84.39808 22.29954 11.071 0 0 -17.92903 2.191214 8.853763 10.9564
